<svg width="589" height="449" viewBox="0 0 589 449" fill="none" xmlns="http://www.w3.org/2000/svg">
<path d="M499.5 38.8C499.328 38.4768 499.043 38.2278 498.7 38.0999C460.604 20.6181 420.402 8.14755 379.1 0.999952C378.729 0.931943 378.346 0.982238 378.005 1.14373C377.664 1.30523 377.382 1.56976 377.2 1.89995C371.722 11.8429 366.749 22.0559 362.3 32.5C317.755 25.7387 272.445 25.7387 227.9 32.5C223.433 22.03 218.392 11.8145 212.8 1.89995C212.607 1.5796 212.324 1.32331 211.986 1.16321C211.648 1.00311 211.27 0.946322 210.9 0.999952C169.526 8.11535 129.254 20.5868 91.1 38.0999C90.7654 38.2418 90.485 38.4871 90.3 38.8C14.1 152.7 -6.79999 263.7 3.40001 373.4C3.42889 373.676 3.51494 373.943 3.65267 374.184C3.7904 374.425 3.9768 374.635 4.20001 374.8C48.5864 407.631 98.2252 432.687 151 448.9C151.379 449.017 151.786 449.013 152.162 448.887C152.539 448.762 152.867 448.521 153.1 448.2C164.423 432.785 174.457 416.463 183.1 399.4C183.215 399.165 183.28 398.909 183.292 398.648C183.304 398.387 183.261 398.126 183.167 397.882C183.073 397.638 182.93 397.416 182.746 397.23C182.563 397.043 182.343 396.897 182.1 396.8C166.245 390.725 150.897 383.402 136.2 374.9C135.94 374.741 135.723 374.522 135.565 374.261C135.408 374 135.316 373.706 135.296 373.402C135.276 373.098 135.33 372.794 135.453 372.515C135.575 372.236 135.763 371.991 136 371.8C139.1 369.5 142.2 367.1 145.1 364.7C145.356 364.475 145.67 364.328 146.007 364.275C146.343 364.222 146.687 364.265 147 364.4C243.2 408.3 347.4 408.3 442.5 364.4C442.804 364.252 443.143 364.192 443.479 364.227C443.815 364.262 444.134 364.392 444.4 364.6C447.3 367 450.4 369.5 453.5 371.8C453.737 371.991 453.925 372.236 454.047 372.515C454.17 372.794 454.224 373.098 454.204 373.402C454.184 373.706 454.092 374 453.935 374.261C453.777 374.522 453.56 374.741 453.3 374.9C438.641 383.446 423.286 390.738 407.4 396.7C407.157 396.797 406.937 396.943 406.754 397.13C406.57 397.316 406.427 397.538 406.333 397.782C406.239 398.026 406.196 398.287 406.208 398.548C406.22 398.809 406.285 399.065 406.4 399.3C415.194 416.278 425.221 432.588 436.4 448.1C436.633 448.421 436.961 448.662 437.338 448.787C437.714 448.913 438.121 448.917 438.5 448.8C491.427 432.66 541.209 407.6 585.7 374.7C585.928 374.54 586.118 374.331 586.256 374.089C586.394 373.847 586.477 373.578 586.5 373.3C598.7 246.6 565.9 136.5 499.5 38.8ZM197.5 306.6C168.5 306.6 144.7 280 144.7 247.4C144.7 214.8 168.1 188.1 197.5 188.1C227.2 188.1 250.8 214.9 250.3 247.3C250.3 280 226.9 306.6 197.5 306.6ZM392.9 306.6C363.9 306.6 340.1 280 340.1 247.4C340.1 214.8 363.4 188.1 392.9 188.1C422.6 188.1 446.2 214.9 445.7 247.3C445.7 280 422.5 306.6 392.9 306.6Z" fill="#e5e7eb"/>
</svg>
